<svg xmlns="http://www.w3.org/2000/svg" xmlns:xlink="http://www.w3.org/1999/xlink" width="500" zoomAndPan="magnify" viewBox="0 0 375 374.999991" height="500" preserveAspectRatio="xMidYMid meet" version="1.0"><defs><g/></defs><g fill="#5ce1e6" fill-opacity="1"><g transform="translate(0.0580362, 208.973257)"><g><path d="M 46.914062 -31.441406 L 22.40625 -43.820312 L 46.914062 -55.953125 L 46.914062 -78.109375 L -0.246094 -52.980469 L -0.246094 -34.414062 L 46.914062 -9.902344 Z M 46.914062 -31.441406 "/></g></g></g><g fill="#5ce1e6" fill-opacity="1"><g transform="translate(57.12121, 208.973257)"><g><path d="M 48.277344 -67.21875 C 56.199219 -67.21875 66.226562 -63.75 69.320312 -51.371094 L 91.605469 -51.371094 C 88.015625 -78.605469 65.113281 -87.890625 48.277344 -87.890625 C 23.765625 -87.890625 4.457031 -69.199219 4.457031 -43.203125 C 4.457031 -17.332031 23.273438 1.363281 48.277344 1.363281 C 64.492188 1.363281 82.691406 -9.65625 88.757812 -26.242188 C 90.117188 -29.460938 91.851562 -35.773438 91.851562 -45.800781 L 38.871094 -45.800781 L 38.871094 -26.863281 L 65.359375 -26.863281 C 60.78125 -20.671875 54.09375 -18.816406 48.277344 -18.816406 C 35.527344 -18.816406 25.871094 -28.472656 25.871094 -43.203125 C 25.871094 -57.191406 35.527344 -67.21875 48.277344 -67.21875 Z M 48.277344 -67.21875 "/></g></g></g><g fill="#5ce1e6" fill-opacity="1"><g transform="translate(153.918241, 208.973257)"><g><path d="M 2.105469 -86.652344 L 2.105469 -82.691406 L 35.402344 0.246094 L 50.753906 0.246094 L 84.175781 -83.558594 L 84.175781 -86.652344 L 62.636719 -86.652344 L 48.277344 -50.503906 L 43.203125 -33.792969 L 38.125 -50.503906 L 23.765625 -86.652344 Z M 2.105469 -86.652344 "/></g></g></g><g fill="#5ce1e6" fill-opacity="1"><g transform="translate(238.460896, 208.973257)"><g/></g></g><g fill="#5ce1e6" fill-opacity="1"><g transform="translate(269.530009, 208.973257)"><g><path d="M 17.949219 6.933594 L 51.496094 -91.480469 L 31.070312 -91.480469 L -2.476562 6.933594 Z M 17.949219 6.933594 "/></g></g></g><g fill="#5ce1e6" fill-opacity="1"><g transform="translate(326.840781, 208.973257)"><g><path d="M -0.125 -56.570312 L 24.261719 -44.5625 L -0.125 -32.554688 L -0.125 -10.644531 L 45.679688 -34.289062 L 45.679688 -54.34375 L -0.125 -78.851562 Z M -0.125 -56.570312 "/></g></g></g></svg>