<svg xmlns="http://www.w3.org/2000/svg" xmlns:xlink="http://www.w3.org/1999/xlink" width="40" zoomAndPan="magnify" viewBox="0 0 30 30.000001" height="40" preserveAspectRatio="xMidYMid meet" version="1.0"><path fill="#009688" d="M 26.445312 14.253906 C 26.445312 12.765625 25.238281 11.5625 23.75 11.5625 C 23.652344 11.5625 23.558594 11.566406 23.464844 11.574219 L 27.167969 0.65625 L 11.4375 0.65625 L 15.132812 11.566406 C 15.078125 11.5625 15.023438 11.5625 14.96875 11.5625 C 13.480469 11.5625 12.273438 12.765625 12.273438 14.253906 C 12.273438 15.457031 13.0625 16.476562 14.152344 16.824219 C 13.578125 17.820312 12.851562 18.714844 12.03125 19.492188 C 10.914062 20.542969 9.636719 21.34375 8.253906 21.835938 C 6.609375 20.988281 5.832031 19.109375 6.535156 17.460938 C 6.613281 17.273438 6.695312 17.085938 6.769531 16.898438 C 7.964844 16.621094 8.851562 15.550781 8.851562 14.273438 C 8.851562 12.785156 7.644531 11.578125 6.15625 11.578125 C 4.667969 11.578125 3.460938 12.785156 3.460938 14.273438 C 3.460938 15.1875 3.914062 15.992188 4.609375 16.480469 C 3.941406 18 2.960938 19.589844 2.65625 21.433594 C 2.289062 23.640625 2.65625 25.984375 4.566406 27.304688 C 9.011719 30.386719 13.839844 25.394531 18.929688 24.140625 C 20.773438 23.6875 22.796875 23.757812 24.421875 22.816406 C 25.644531 22.109375 26.449219 20.941406 26.675781 19.625 C 26.902344 18.324219 26.574219 17.03125 25.816406 15.984375 C 26.207031 15.515625 26.445312 14.914062 26.445312 14.253906 " fill-opacity="1" fill-rule="nonzero"/><path fill="#ffffff" d="M 26.027344 19.511719 C 25.828125 20.652344 25.125 21.652344 24.09375 22.25 C 23.132812 22.804688 21.980469 22.972656 20.761719 23.148438 C 20.105469 23.242188 19.429688 23.339844 18.769531 23.5 C 17.027344 23.933594 15.335938 24.773438 13.699219 25.582031 C 10.429688 27.207031 7.605469 28.613281 4.941406 26.765625 C 2.988281 25.414062 3.078125 22.910156 3.304688 21.539062 C 3.515625 20.269531 4.085938 19.097656 4.636719 17.96875 C 4.734375 17.773438 4.824219 17.578125 4.917969 17.390625 C 5.191406 17.5 5.480469 17.574219 5.78125 17.605469 C 5.222656 19.457031 6.105469 21.46875 7.953125 22.421875 L 8.207031 22.550781 L 8.476562 22.453125 C 9.941406 21.933594 11.289062 21.097656 12.484375 19.96875 C 13.257812 19.238281 13.921875 18.433594 14.46875 17.570312 C 14.632812 17.597656 14.800781 17.609375 14.96875 17.609375 C 16.667969 17.609375 18.074219 16.339844 18.292969 14.699219 C 18.988281 14.671875 19.726562 14.671875 20.425781 14.699219 C 20.644531 16.339844 22.050781 17.609375 23.75 17.609375 C 24.460938 17.609375 25.117188 17.386719 25.660156 17.007812 C 26.039062 17.78125 26.179688 18.648438 26.027344 19.511719 Z M 6.15625 12.238281 C 7.28125 12.238281 8.195312 13.152344 8.195312 14.273438 C 8.195312 14.679688 8.074219 15.054688 7.871094 15.371094 C 7.535156 15.898438 6.957031 16.261719 6.296875 16.304688 C 6.25 16.308594 6.203125 16.3125 6.15625 16.3125 C 5.90625 16.3125 5.667969 16.265625 5.445312 16.183594 C 4.996094 16.015625 4.621094 15.695312 4.386719 15.28125 C 4.21875 14.984375 4.121094 14.640625 4.121094 14.273438 C 4.121094 13.152344 5.035156 12.238281 6.15625 12.238281 Z M 12.933594 14.253906 C 12.933594 13.234375 13.6875 12.386719 14.667969 12.242188 C 14.765625 12.226562 14.867188 12.21875 14.96875 12.21875 C 15.621094 12.21875 16.203125 12.527344 16.578125 13.007812 C 16.667969 13.125 16.75 13.253906 16.8125 13.394531 C 16.9375 13.65625 17.007812 13.949219 17.007812 14.253906 C 17.007812 14.417969 16.988281 14.578125 16.949219 14.730469 C 16.75 15.558594 16.042969 16.195312 15.175781 16.28125 C 15.109375 16.289062 15.039062 16.292969 14.96875 16.292969 C 14.5625 16.292969 14.183594 16.171875 13.867188 15.964844 C 13.304688 15.601562 12.933594 14.972656 12.933594 14.253906 Z M 21.433594 11.832031 C 20.996094 12.25 20.671875 12.785156 20.511719 13.382812 C 19.757812 13.355469 18.957031 13.355469 18.207031 13.382812 C 18.035156 12.746094 17.675781 12.179688 17.195312 11.753906 L 19.304688 7.492188 Z M 12.355469 1.316406 L 26.25 1.316406 L 22.96875 10.996094 C 22.824219 11.027344 22.6875 11.070312 22.550781 11.125 L 19.308594 4.511719 L 16.058594 11.085938 C 15.917969 11.035156 15.773438 10.996094 15.625 10.96875 Z M 25.785156 14.253906 C 25.785156 14.460938 25.753906 14.65625 25.699219 14.84375 C 25.566406 15.285156 25.285156 15.664062 24.914062 15.925781 C 24.582031 16.15625 24.183594 16.292969 23.75 16.292969 C 22.808594 16.292969 22.015625 15.652344 21.78125 14.785156 C 21.738281 14.613281 21.710938 14.4375 21.710938 14.253906 C 21.710938 13.976562 21.769531 13.710938 21.871094 13.46875 C 21.921875 13.34375 21.988281 13.226562 22.0625 13.117188 C 22.429688 12.574219 23.046875 12.21875 23.75 12.21875 C 23.8125 12.21875 23.875 12.222656 23.9375 12.226562 C 24.972656 12.324219 25.785156 13.195312 25.785156 14.253906 Z M 27.101562 14.253906 C 27.101562 12.617188 25.921875 11.253906 24.367188 10.960938 L 28.085938 0 L 10.519531 0 L 14.242188 10.984375 C 12.742188 11.316406 11.617188 12.65625 11.617188 14.253906 C 11.617188 15.457031 12.25 16.511719 13.203125 17.101562 C 12.742188 17.785156 12.203125 18.425781 11.582031 19.011719 C 10.59375 19.941406 9.496094 20.648438 8.3125 21.109375 C 7.121094 20.363281 6.617188 18.949219 7.140625 17.71875 L 7.179688 17.621094 C 7.207031 17.5625 7.230469 17.503906 7.257812 17.441406 C 8.566406 16.984375 9.511719 15.738281 9.511719 14.273438 C 9.511719 12.425781 8.003906 10.921875 6.15625 10.921875 C 4.308594 10.921875 2.804688 12.425781 2.804688 14.273438 C 2.804688 15.207031 3.1875 16.054688 3.804688 16.660156 C 3.691406 16.902344 3.574219 17.144531 3.453125 17.390625 C 2.890625 18.550781 2.25 19.863281 2.007812 21.324219 C 1.527344 24.222656 2.300781 26.539062 4.191406 27.847656 C 5.335938 28.640625 6.5 28.953125 7.671875 28.953125 C 9.875 28.953125 12.105469 27.847656 14.285156 26.761719 C 15.859375 25.980469 17.480469 25.175781 19.085938 24.78125 C 19.683594 24.632812 20.296875 24.542969 20.949219 24.449219 C 22.238281 24.265625 23.570312 24.070312 24.753906 23.386719 C 26.121094 22.59375 27.058594 21.265625 27.324219 19.738281 C 27.550781 18.425781 27.277344 17.113281 26.609375 16 C 26.921875 15.492188 27.101562 14.894531 27.101562 14.253906 Z M 27.101562 14.253906 " fill-opacity="1" fill-rule="nonzero"/></svg>