<svg xmlns="http://www.w3.org/2000/svg" xmlns:xlink="http://www.w3.org/1999/xlink" width="40" zoomAndPan="magnify" viewBox="0 0 30 30.000001" height="40" preserveAspectRatio="xMidYMid meet" version="1.0"><defs><clipPath id="514278dfd7"><path d="M 6 4.753906 L 24 4.753906 L 24 24.351562 L 6 24.351562 Z M 6 4.753906 " clip-rule="nonzero"/></clipPath></defs><path fill="#b80025" d="M 22.761719 14.375 C 22.761719 13.371094 21.945312 12.558594 20.941406 12.558594 C 20.878906 12.558594 20.8125 12.5625 20.75 12.566406 L 23.25 5.199219 L 12.632812 5.199219 L 15.125 12.5625 C 15.089844 12.558594 15.054688 12.558594 15.015625 12.558594 C 14.011719 12.558594 13.195312 13.371094 13.195312 14.375 C 13.195312 15.1875 13.730469 15.875 14.464844 16.109375 C 14.074219 16.78125 13.585938 17.386719 13.03125 17.910156 C 12.277344 18.621094 11.417969 19.160156 10.484375 19.492188 C 9.375 18.921875 8.847656 17.652344 9.320312 16.539062 C 9.375 16.414062 9.429688 16.289062 9.480469 16.160156 C 10.285156 15.972656 10.886719 15.25 10.886719 14.390625 C 10.886719 13.386719 10.070312 12.570312 9.066406 12.570312 C 8.0625 12.570312 7.246094 13.386719 7.246094 14.390625 C 7.246094 15.003906 7.554688 15.550781 8.023438 15.878906 C 7.574219 16.902344 6.910156 17.976562 6.703125 19.21875 C 6.457031 20.710938 6.703125 22.292969 7.992188 23.1875 C 10.996094 25.265625 14.253906 21.894531 17.6875 21.050781 C 18.933594 20.742188 20.300781 20.792969 21.398438 20.15625 C 22.222656 19.679688 22.765625 18.886719 22.917969 18 C 23.070312 17.125 22.847656 16.25 22.335938 15.542969 C 22.601562 15.226562 22.761719 14.820312 22.761719 14.375 " fill-opacity="1" fill-rule="nonzero"/><g clip-path="url(#514278dfd7)"><path fill="#ffffff" d="M 22.480469 17.925781 C 22.347656 18.695312 21.871094 19.367188 21.175781 19.773438 C 20.527344 20.148438 19.746094 20.257812 18.925781 20.378906 C 18.484375 20.441406 18.027344 20.507812 17.582031 20.617188 C 16.402344 20.90625 15.261719 21.476562 14.160156 22.023438 C 11.953125 23.121094 10.042969 24.066406 8.246094 22.820312 C 6.929688 21.90625 6.988281 20.21875 7.144531 19.292969 C 7.285156 18.4375 7.667969 17.644531 8.042969 16.882812 C 8.105469 16.75 8.167969 16.621094 8.230469 16.492188 C 8.414062 16.566406 8.609375 16.617188 8.816406 16.640625 C 8.4375 17.886719 9.03125 19.246094 10.28125 19.886719 L 10.453125 19.976562 L 10.632812 19.910156 C 11.621094 19.558594 12.53125 18.996094 13.335938 18.234375 C 13.859375 17.742188 14.308594 17.195312 14.675781 16.613281 C 14.789062 16.632812 14.902344 16.640625 15.015625 16.640625 C 16.164062 16.640625 17.113281 15.78125 17.257812 14.675781 C 17.726562 14.660156 18.226562 14.660156 18.699219 14.675781 C 18.84375 15.78125 19.796875 16.640625 20.941406 16.640625 C 21.421875 16.640625 21.867188 16.488281 22.230469 16.234375 C 22.488281 16.753906 22.582031 17.339844 22.480469 17.925781 Z M 9.066406 13.015625 C 9.824219 13.015625 10.441406 13.632812 10.441406 14.390625 C 10.441406 14.660156 10.363281 14.914062 10.226562 15.128906 C 9.996094 15.484375 9.609375 15.730469 9.160156 15.761719 C 9.128906 15.761719 9.097656 15.765625 9.066406 15.765625 C 8.898438 15.765625 8.738281 15.734375 8.585938 15.679688 C 8.285156 15.5625 8.03125 15.347656 7.875 15.070312 C 7.757812 14.871094 7.691406 14.636719 7.691406 14.390625 C 7.691406 13.632812 8.308594 13.015625 9.066406 13.015625 Z M 13.640625 14.375 C 13.640625 13.6875 14.148438 13.117188 14.8125 13.015625 C 14.878906 13.007812 14.945312 13 15.015625 13 C 15.457031 13 15.847656 13.210938 16.101562 13.535156 C 16.164062 13.613281 16.21875 13.703125 16.261719 13.792969 C 16.34375 13.972656 16.390625 14.167969 16.390625 14.375 C 16.390625 14.488281 16.378906 14.59375 16.351562 14.695312 C 16.21875 15.257812 15.742188 15.683594 15.15625 15.746094 C 15.109375 15.75 15.0625 15.75 15.015625 15.75 C 14.742188 15.75 14.484375 15.671875 14.269531 15.53125 C 13.890625 15.285156 13.640625 14.859375 13.640625 14.375 Z M 19.378906 12.742188 C 19.085938 13.023438 18.867188 13.382812 18.757812 13.789062 C 18.246094 13.769531 17.707031 13.769531 17.203125 13.789062 C 17.085938 13.355469 16.84375 12.976562 16.519531 12.6875 L 17.941406 9.808594 Z M 13.25 5.644531 L 22.628906 5.644531 L 20.414062 12.175781 C 20.316406 12.199219 20.222656 12.226562 20.132812 12.261719 L 17.945312 7.796875 L 15.75 12.234375 C 15.65625 12.203125 15.558594 12.175781 15.457031 12.15625 Z M 22.316406 14.375 C 22.316406 14.515625 22.296875 14.648438 22.257812 14.773438 C 22.167969 15.070312 21.976562 15.328125 21.726562 15.503906 C 21.503906 15.660156 21.234375 15.75 20.941406 15.75 C 20.308594 15.75 19.769531 15.320312 19.613281 14.734375 C 19.582031 14.621094 19.566406 14.5 19.566406 14.375 C 19.566406 14.1875 19.605469 14.007812 19.671875 13.847656 C 19.707031 13.761719 19.753906 13.683594 19.804688 13.609375 C 20.050781 13.242188 20.46875 13 20.941406 13 C 20.984375 13 21.027344 13.003906 21.070312 13.007812 C 21.769531 13.074219 22.316406 13.660156 22.316406 14.375 Z M 23.207031 14.375 C 23.207031 13.273438 22.410156 12.347656 21.359375 12.152344 L 23.867188 4.753906 L 12.011719 4.753906 L 14.523438 12.167969 C 13.511719 12.394531 12.753906 13.296875 12.753906 14.375 C 12.753906 15.1875 13.179688 15.898438 13.824219 16.296875 C 13.511719 16.757812 13.148438 17.191406 12.726562 17.585938 C 12.0625 18.214844 11.320312 18.691406 10.523438 19.003906 C 9.71875 18.5 9.378906 17.546875 9.730469 16.714844 L 9.757812 16.648438 C 9.777344 16.609375 9.792969 16.566406 9.808594 16.527344 C 10.695312 16.21875 11.332031 15.378906 11.332031 14.390625 C 11.332031 13.140625 10.316406 12.125 9.066406 12.125 C 7.820312 12.125 6.804688 13.140625 6.804688 14.390625 C 6.804688 15.019531 7.0625 15.589844 7.480469 16 C 7.402344 16.160156 7.324219 16.324219 7.242188 16.492188 C 6.863281 17.277344 6.429688 18.164062 6.265625 19.148438 C 5.941406 21.105469 6.464844 22.667969 7.738281 23.550781 C 8.511719 24.085938 9.296875 24.296875 10.089844 24.296875 C 11.578125 24.296875 13.082031 23.550781 14.554688 22.820312 C 15.613281 22.292969 16.710938 21.746094 17.792969 21.480469 C 18.199219 21.382812 18.613281 21.320312 19.050781 21.257812 C 19.921875 21.132812 20.824219 21.003906 21.621094 20.539062 C 22.542969 20.003906 23.175781 19.105469 23.355469 18.078125 C 23.507812 17.191406 23.324219 16.304688 22.875 15.554688 C 23.082031 15.210938 23.207031 14.808594 23.207031 14.375 Z M 23.207031 14.375 " fill-opacity="1" fill-rule="nonzero"/></g></svg>