<svg xmlns="http://www.w3.org/2000/svg" xmlns:xlink="http://www.w3.org/1999/xlink" width="40" zoomAndPan="magnify" viewBox="0 0 30 30.000001" height="40" preserveAspectRatio="xMidYMid meet" version="1.0"><path fill="#009688" d="M 5.019531 18.941406 L 7.441406 17.414062 C 7.910156 18.277344 8.335938 19.007812 9.355469 19.007812 C 10.332031 19.007812 10.949219 18.609375 10.949219 17.0625 L 10.949219 6.527344 L 13.921875 6.527344 L 13.921875 17.105469 C 13.921875 20.3125 12.117188 21.773438 9.480469 21.773438 C 7.101562 21.773438 5.722656 20.492188 5.019531 18.941406 Z M 15.539062 18.609375 L 17.960938 17.148438 C 18.597656 18.234375 19.429688 19.03125 20.894531 19.03125 C 22.125 19.03125 22.914062 18.386719 22.914062 17.503906 C 22.914062 16.441406 22.105469 16.066406 20.746094 15.445312 L 20 15.113281 C 17.855469 14.164062 16.433594 12.96875 16.433594 10.445312 C 16.433594 8.121094 18.132812 6.351562 20.789062 6.351562 C 22.679688 6.351562 24.039062 7.035156 25.015625 8.828125 L 22.699219 10.378906 C 22.191406 9.425781 21.636719 9.050781 20.789062 9.050781 C 19.917969 9.050781 19.363281 9.625 19.363281 10.378906 C 19.363281 11.308594 19.917969 11.683594 21.191406 12.257812 L 21.933594 12.589844 C 24.464844 13.71875 25.886719 14.871094 25.886719 17.460938 C 25.886719 20.246094 23.785156 21.773438 20.957031 21.773438 C 18.195312 21.773438 16.410156 20.402344 15.539062 18.609375 Z M 15.539062 18.609375 " fill-opacity="1" fill-rule="nonzero"/></svg>