<svg xmlns="http://www.w3.org/2000/svg" xmlns:xlink="http://www.w3.org/1999/xlink" width="40" zoomAndPan="magnify" viewBox="0 0 30 30.000001" height="40" preserveAspectRatio="xMidYMid meet" version="1.0"><path fill="#009688" d="M 23.164062 10.523438 L 22.347656 10.253906 C 22.347656 10.070312 22.441406 9.890625 22.441406 9.707031 C 23.074219 6.714844 22.621094 4.265625 21.261719 3.449219 C 19.898438 2.722656 17.722656 3.449219 15.542969 5.351562 C 15.363281 5.535156 15.089844 5.714844 14.910156 5.898438 C 14.726562 5.804688 14.636719 5.625 14.457031 5.535156 C 12.277344 3.539062 10.011719 2.722656 8.648438 3.539062 C 7.289062 4.265625 6.925781 6.621094 7.46875 9.433594 C 7.558594 9.707031 7.558594 9.980469 7.652344 10.253906 C 7.289062 10.34375 7.015625 10.433594 6.742188 10.523438 C 4.023438 11.429688 2.296875 12.972656 2.296875 14.425781 C 2.296875 15.96875 4.113281 17.601562 6.925781 18.507812 C 7.105469 18.597656 7.378906 18.691406 7.652344 18.691406 C 7.558594 18.960938 7.46875 19.324219 7.46875 19.597656 C 6.925781 22.410156 7.378906 24.585938 8.648438 25.402344 C 10.011719 26.21875 12.277344 25.402344 14.546875 23.40625 C 14.726562 23.226562 14.910156 23.042969 15.089844 22.953125 C 15.273438 23.136719 15.542969 23.40625 15.816406 23.589844 C 17.992188 25.492188 20.082031 26.21875 21.441406 25.402344 C 22.800781 24.585938 23.257812 22.226562 22.710938 19.324219 C 22.710938 19.144531 22.621094 18.871094 22.53125 18.597656 C 22.710938 18.507812 22.894531 18.507812 22.984375 18.417969 C 25.886719 17.417969 27.792969 15.878906 27.792969 14.335938 C 27.703125 12.972656 25.886719 11.523438 23.164062 10.523438 Z M 16.359375 6.261719 C 18.265625 4.628906 19.988281 3.992188 20.804688 4.445312 C 21.621094 4.898438 21.984375 6.894531 21.441406 9.527344 C 21.441406 9.707031 21.351562 9.890625 21.351562 10.070312 C 20.261719 9.796875 19.082031 9.617188 17.992188 9.527344 C 17.359375 8.617188 16.632812 7.710938 15.816406 6.804688 Z M 9.828125 15.785156 C 10.101562 16.238281 10.28125 16.695312 10.554688 17.148438 C 10.828125 17.601562 11.097656 18.054688 11.371094 18.417969 C 10.554688 18.328125 9.828125 18.234375 9.011719 18.054688 C 9.195312 17.328125 9.464844 16.601562 9.828125 15.785156 Z M 9.828125 13.246094 C 9.464844 12.519531 9.285156 11.792969 9.011719 11.070312 C 9.738281 10.886719 10.554688 10.796875 11.28125 10.707031 C 11.007812 11.160156 10.734375 11.523438 10.464844 11.976562 C 10.28125 12.339844 10.011719 12.792969 9.828125 13.246094 Z M 10.371094 14.515625 C 10.734375 13.789062 11.097656 13.15625 11.460938 12.429688 C 11.824219 11.792969 12.277344 11.070312 12.730469 10.433594 C 13.457031 10.34375 14.273438 10.34375 15.089844 10.34375 C 15.90625 10.34375 16.632812 10.34375 17.449219 10.433594 C 17.902344 11.070312 18.265625 11.703125 18.628906 12.429688 C 18.992188 13.066406 19.355469 13.789062 19.71875 14.515625 C 19.355469 15.242188 18.992188 15.878906 18.628906 16.601562 C 18.265625 17.238281 17.8125 17.964844 17.449219 18.597656 C 16.722656 18.691406 15.90625 18.691406 15.089844 18.691406 C 14.273438 18.691406 13.546875 18.691406 12.824219 18.597656 C 12.367188 17.964844 12.007812 17.328125 11.550781 16.601562 C 11.097656 15.878906 10.734375 15.242188 10.371094 14.515625 Z M 19.445312 17.148438 C 19.71875 16.695312 19.988281 16.238281 20.171875 15.785156 C 20.535156 16.511719 20.804688 17.238281 20.988281 18.054688 C 20.171875 18.234375 19.445312 18.328125 18.628906 18.417969 C 18.992188 17.964844 19.265625 17.511719 19.445312 17.148438 Z M 20.171875 13.246094 C 19.898438 12.792969 19.71875 12.339844 19.445312 11.886719 C 19.171875 11.429688 18.902344 11.070312 18.71875 10.613281 C 19.535156 10.707031 20.261719 10.886719 21.078125 10.976562 C 20.804688 11.792969 20.535156 12.519531 20.171875 13.246094 Z M 15 7.53125 C 15.542969 8.074219 15.996094 8.710938 16.453125 9.34375 C 15.453125 9.253906 14.457031 9.253906 13.457031 9.34375 C 14.003906 8.710938 14.546875 8.074219 15 7.53125 Z M 9.195312 4.445312 C 10.011719 3.992188 11.914062 4.628906 13.910156 6.441406 L 14.273438 6.804688 C 13.457031 7.621094 12.730469 8.527344 12.097656 9.527344 C 10.917969 9.617188 9.828125 9.796875 8.738281 10.070312 C 8.648438 9.796875 8.648438 9.527344 8.558594 9.253906 C 8.015625 6.804688 8.378906 4.898438 9.195312 4.445312 Z M 7.921875 17.78125 C 7.742188 17.691406 7.46875 17.691406 7.289062 17.601562 C 6.019531 17.148438 5.019531 16.601562 4.292969 16.058594 C 3.660156 15.515625 3.386719 14.96875 3.386719 14.515625 C 3.386719 13.609375 4.746094 12.429688 7.105469 11.613281 C 7.378906 11.523438 7.652344 11.429688 8.015625 11.339844 C 8.285156 12.429688 8.648438 13.519531 9.195312 14.515625 C 8.648438 15.605469 8.285156 16.695312 7.921875 17.78125 Z M 13.820312 22.773438 C 12.824219 23.679688 11.824219 24.222656 11.007812 24.585938 C 10.191406 24.859375 9.648438 24.859375 9.195312 24.675781 C 8.378906 24.222656 8.015625 22.410156 8.46875 20.050781 C 8.558594 19.6875 8.648438 19.414062 8.648438 19.050781 C 9.738281 19.324219 10.917969 19.507812 12.097656 19.507812 C 12.730469 20.414062 13.457031 21.320312 14.273438 22.226562 C 14.09375 22.410156 14.003906 22.589844 13.820312 22.773438 Z M 15 21.503906 C 14.457031 20.957031 14.003906 20.324219 13.457031 19.6875 L 16.453125 19.6875 C 16.089844 20.324219 15.542969 20.957031 15 21.503906 Z M 21.621094 23.042969 C 21.441406 23.859375 21.167969 24.40625 20.804688 24.585938 C 19.988281 25.039062 18.265625 24.40625 16.453125 22.863281 C 16.269531 22.679688 15.996094 22.5 15.816406 22.320312 C 16.542969 21.503906 17.269531 20.59375 17.902344 19.597656 C 19.082031 19.507812 20.171875 19.324219 21.351562 19.050781 C 21.441406 19.234375 21.441406 19.507812 21.53125 19.6875 C 21.804688 20.957031 21.804688 22.136719 21.621094 23.042969 Z M 22.53125 17.601562 C 22.347656 17.601562 22.257812 17.691406 22.078125 17.691406 C 21.714844 16.601562 21.261719 15.515625 20.804688 14.425781 C 21.261719 13.425781 21.714844 12.339844 22.078125 11.25 C 22.347656 11.339844 22.621094 11.429688 22.800781 11.523438 C 25.160156 12.339844 26.613281 13.519531 26.613281 14.425781 C 26.613281 15.515625 25.070312 16.785156 22.53125 17.601562 Z M 22.53125 17.601562 " fill-opacity="1" fill-rule="nonzero"/><path fill="#009688" d="M 15 16.785156 C 15.453125 16.785156 15.90625 16.695312 16.269531 16.421875 C 16.632812 16.148438 16.90625 15.785156 17.085938 15.421875 C 17.269531 14.96875 17.269531 14.515625 17.175781 14.0625 C 17.085938 13.609375 16.90625 13.246094 16.542969 12.882812 C 16.269531 12.519531 15.816406 12.339844 15.363281 12.246094 C 14.910156 12.15625 14.457031 12.246094 14.003906 12.339844 C 13.546875 12.519531 13.183594 12.792969 13.003906 13.15625 C 12.730469 13.519531 12.640625 13.972656 12.640625 14.425781 C 12.640625 14.699219 12.730469 15.058594 12.824219 15.332031 C 12.914062 15.605469 13.09375 15.878906 13.277344 16.058594 C 13.457031 16.238281 13.730469 16.421875 14.003906 16.511719 C 14.363281 16.695312 14.726562 16.785156 15 16.785156 Z M 15 16.785156 " fill-opacity="1" fill-rule="nonzero"/></svg>