<svg xmlns="http://www.w3.org/2000/svg" xmlns:xlink="http://www.w3.org/1999/xlink" width="40" zoomAndPan="magnify" viewBox="0 0 30 30.000001" height="40" preserveAspectRatio="xMidYMid meet" version="1.0"><path fill="#009688" d="M 22.101562 7.480469 C 22.875 7.660156 23.574219 8.0625 24.117188 8.640625 C 24.417969 8.953125 24.675781 9.300781 24.890625 9.679688 C 24.902344 9.71875 23.5 10.660156 22.648438 11.1875 C 22.617188 11.207031 22.496094 11.074219 22.355469 10.867188 C 22.203125 10.601562 21.980469 10.378906 21.714844 10.21875 C 21.453125 10.0625 21.152344 9.972656 20.84375 9.960938 C 19.863281 9.894531 19.234375 10.40625 19.238281 11.261719 C 19.230469 11.472656 19.277344 11.679688 19.378906 11.863281 C 19.59375 12.308594 19.992188 12.578125 21.246094 13.121094 C 23.554688 14.113281 24.546875 14.769531 25.15625 15.699219 C 25.503906 16.289062 25.714844 16.945312 25.78125 17.625 C 25.84375 18.300781 25.761719 18.988281 25.535156 19.628906 C 25.222656 20.335938 24.726562 20.945312 24.097656 21.394531 C 23.472656 21.84375 22.734375 22.117188 21.96875 22.183594 C 21.148438 22.277344 20.324219 22.269531 19.511719 22.160156 C 18.261719 21.953125 17.113281 21.355469 16.230469 20.449219 C 15.894531 20.074219 15.613281 19.65625 15.390625 19.207031 C 15.484375 19.136719 15.582031 19.074219 15.6875 19.015625 C 15.828125 18.933594 16.371094 18.625 16.882812 18.328125 L 17.8125 17.78125 L 18.007812 18.066406 C 18.332031 18.53125 18.75 18.929688 19.230469 19.238281 C 19.71875 19.503906 20.269531 19.628906 20.824219 19.601562 C 21.375 19.574219 21.910156 19.394531 22.367188 19.078125 C 22.605469 18.847656 22.75 18.542969 22.785156 18.214844 C 22.816406 17.890625 22.734375 17.558594 22.550781 17.289062 C 22.300781 16.929688 21.789062 16.628906 20.332031 15.996094 C 19.195312 15.613281 18.15625 14.976562 17.296875 14.132812 C 16.886719 13.667969 16.582031 13.117188 16.410156 12.519531 C 16.28125 11.84375 16.261719 11.148438 16.355469 10.464844 C 16.523438 9.675781 16.933594 8.960938 17.523438 8.414062 C 18.117188 7.863281 18.859375 7.511719 19.660156 7.402344 C 20.472656 7.304688 21.296875 7.332031 22.101562 7.480469 Z M 14.53125 8.824219 L 14.542969 10.144531 L 10.339844 10.144531 L 10.339844 22.070312 L 7.378906 22.070312 L 7.378906 10.144531 L 3.179688 10.144531 L 3.179688 8.851562 C 3.167969 8.40625 3.179688 7.960938 3.214844 7.519531 C 3.230469 7.5 5.785156 7.488281 8.878906 7.496094 L 14.515625 7.511719 Z M 14.53125 8.824219 " fill-opacity="1" fill-rule="nonzero"/></svg>